<svg width="50" height="50" viewBox="0 0 50 50" fill="none" xmlns="http://www.w3.org/2000/svg">
<path d="M46.875 25C46.875 37.0312 37.0312 46.875 25 46.875C12.9688 46.875 3.125 37.0312 3.125 25C3.125 12.9688 12.9688 3.125 25 3.125V0C11.25 0 0 11.25 0 25C0 38.75 11.25 50 25 50C38.75 50 50 38.75 50 25H46.875Z" fill="#F0F0F2"/>
<path d="M36.0937 36.7188C30 42.8125 20.1562 42.8125 14.0625 36.7188C10.7812 33.4375 9.21873 28.9062 9.53123 24.375L6.40622 24.0625C5.93747 29.5312 7.96873 35 11.875 38.9062C19.2187 46.25 31.0937 46.25 38.4375 38.9062C45.7812 31.5625 45.7812 19.6875 38.4375 12.3438L36.25 14.5312C42.1875 20.625 42.1875 30.625 36.0937 36.7188Z" fill="#F0F0F2"/>
<path d="M25 32.0312C28.4375 32.0312 31.25 29.2188 31.25 25.7812H28.125C28.125 27.5 26.7188 28.9062 25 28.9062V32.0312Z" fill="#F0F0F2"/>
<path d="M15.625 25C15.625 19.8438 19.8438 15.625 25 15.625V12.5C18.125 12.5 12.5 18.125 12.5 25C12.5 31.875 18.125 37.5 25 37.5C31.875 37.5 37.5 31.875 37.5 25H34.375C34.375 30.1562 30.1562 34.375 25 34.375C19.8438 34.375 15.625 30.1562 15.625 25Z" fill="#F0F0F2"/>
</svg>
